<svg version="1.1" viewBox="0.0 0.0 516.5433070866142 660.3727034120735" fill="none" stroke="none" stroke-linecap="square" stroke-miterlimit="10" xmlns:xlink="http://www.w3.org/1999/xlink" xmlns="http://www.w3.org/2000/svg"><clipPath id="p.0"><path d="m0 0l516.54333 0l0 660.3727l-516.54333 0l0 -660.3727z" clip-rule="nonzero"/></clipPath><g clip-path="url(#p.0)"><path fill="#000000" fill-opacity="0.0" d="m0 0l516.54333 0l0 660.3727l-516.54333 0z" fill-rule="evenodd"/><path fill="#ffffff" fill-opacity="0.5759" d="m159.99738 575.33417l193.48032 0l0 26.42517l-193.48032 0z" fill-rule="evenodd"/><path fill="#ffffff" fill-opacity="0.5759" d="m101.24303 17.629921l310.989 0l0 0c20.620453 0 40.396362 8.19145 54.977234 22.772327c14.580902 14.580875 22.772339 34.356785 22.772339 54.97726l0 480.26617c0 0.0021362305 -0.001739502 0.0038452148 -0.0038757324 0.0038452148l-466.4843 -0.0038452148l0 0c-0.0021476746 0 -0.0038871765 -0.0017700195 -0.0038871765 -0.00390625l0.0038871765 -480.26227l0 0c0 -42.93991 34.809673 -77.74959 77.74959 -77.74959z" fill-rule="evenodd"/><path fill="#cfe2f3" d="m331.69815 362.29398l-76.188965 -19.047272l0 -179.60628l76.188965 -19.047256z" fill-rule="evenodd"/><path fill="#cfe2f3" d="m331.69815 144.59317l76.188995 19.047256l0 179.60628l-76.188995 19.047272z" fill-rule="evenodd"/><defs><radialGradient id="p.1" gradientUnits="userSpaceOnUse" gradientTransform="matrix(15.542712454171918 0.0 0.0 15.542712454171918 0.0 0.0)" spreadMethod="pad" cx="16.51785582610169" cy="30.20243878965332" fx="16.51785582610169" fy="30.20243878965332" r="15.542712211608887"><stop offset="0.0" stop-color="#1077d2"/><stop offset="1.0" stop-color="#093153"/></radialGradient></defs><path fill="url(#p.1)" d="m23.48819 469.42783l233.24408 -62.897644l233.24411 62.897644l-233.24411 62.897614z" fill-rule="evenodd"/><defs><linearGradient id="p.2" gradientUnits="userSpaceOnUse" gradientTransform="matrix(-9.266360044258247E-4 -13.395449931031228 13.395449931031228 -9.266360044258247E-4 0.0 0.0)" spreadMethod="pad" x1="-3.237050918665003" y1="19.338796307313324" x2="-3.2369039654874365" y2="5.943346377088166"><stop offset="0.0" stop-color="#1077d2"/><stop offset="1.0" stop-color="#6fa8dc"/></linearGradient></defs><path fill="url(#p.2)" d="m259.08136 498.6509l-179.43617 -44.858246l-0.025283813 -365.59058l179.42996 -44.85827z" fill-rule="evenodd"/><defs><linearGradient id="p.3" gradientUnits="userSpaceOnUse" gradientTransform="matrix(9.24682073369124E-4 13.367203417618688 -13.367203417618688 9.24682073369124E-4 0.0 0.0)" spreadMethod="pad" x1="37.30643770496552" y1="-19.26475900923538" x2="37.30658496867288" y2="-32.63196242604288"><stop offset="0.0" stop-color="#1077d2"/><stop offset="1.0" stop-color="#093153"/></linearGradient></defs><path fill="url(#p.3)" d="m257.52396 43.357853l178.68027 44.669292l0.025299072 365.9685l-178.67407 44.66931z" fill-rule="evenodd"/><defs><linearGradient id="p.4" gradientUnits="userSpaceOnUse" gradientTransform="matrix(6.191528793169858 -1.6410315735486791 1.6410315735486791 6.191528793169858 0.0 0.0)" spreadMethod="pad" x1="15.46151581736338" y1="92.17022346782971" x2="15.461493408344102" y2="98.36175226095902"><stop offset="0.0" stop-color="#d4e5f5"/><stop offset="1.0" stop-color="#70a4d5"/></linearGradient></defs><path fill="url(#p.4)" d="m257.14514 583.6368l-0.58969116 -40.87079l233.78656 -61.963837l0.58969116 40.870758z" fill-rule="evenodd"/><defs><linearGradient id="p.5" gradientUnits="userSpaceOnUse" gradientTransform="matrix(-6.191528793176065 -1.6410315735503218 -1.6410315735503218 6.191528793176065 0.0 0.0)" spreadMethod="pad" x1="-62.377726855637086" y1="71.53956475153582" x2="-62.37775246594484" y2="77.73109354465892"><stop offset="0.0" stop-color="#d4e5f5"/><stop offset="1.0" stop-color="#70a4d5"/></linearGradient></defs><path fill="url(#p.5)" d="m258.65436 583.6381l0.58969116 -40.87079l-233.78656 -61.963867l-0.58969116 40.87079z" fill-rule="evenodd"/><defs><linearGradient id="p.6" gradientUnits="userSpaceOnUse" gradientTransform="matrix(-6.191528793176065 -1.6410315735503218 -1.6410315735503218 6.191528793176065 0.0 0.0)" spreadMethod="pad" x1="-64.64206861764279" y1="80.08279206638878" x2="-64.64209422795054" y2="86.27432085951187"><stop offset="0.0" stop-color="#1077d2"/><stop offset="1.0" stop-color="#093153"/></linearGradient></defs><path fill="url(#p.6)" d="m258.65436 640.24963l0.58969116 -40.870728l-233.78656 -61.96393l-0.58969116 40.87079z" fill-rule="evenodd"/><path fill="#cfe2f3" d="m206.75592 192.10236l-76.976364 -16.330704l0 -32.661423l76.976364 -16.330704z" fill-rule="evenodd"/><path fill="#cfe2f3" d="m129.77953 167.60367l76.97638 0l0 47.811035l-76.97638 0z" fill-rule="evenodd"/><path fill="#cfe2f3" d="m132.37796 157.94751l71.779526 0l0 47.81102l-71.779526 0z" fill-rule="evenodd"/><path fill="#cfe2f3" d="m206.75592 436.2861l-76.976364 -16.330719l0 -32.661407l76.976364 -16.330719z" fill-rule="evenodd"/><path fill="#cfe2f3" d="m129.77953 327.38846l76.97638 0l0 60.22046l-76.97638 0z" fill-rule="evenodd"/><path fill="#cfe2f3" d="m132.37796 352.5092l71.779526 0l0 47.811035l-71.779526 0z" fill-rule="evenodd"/><path fill="#cfe2f3" d="m309.9449 192.10236l76.97638 -16.330704l0 -32.661423l-76.97638 -16.330704z" fill-rule="evenodd"/><path fill="#cfe2f3" d="m386.9213 167.60367l-76.97638 0l0 47.811035l76.97638 0z" fill-rule="evenodd"/><path fill="#cfe2f3" d="m384.32285 157.94751l-71.77951 0l0 47.81102l71.77951 0z" fill-rule="evenodd"/><path fill="#cfe2f3" d="m309.9449 436.2861l76.97638 -16.330719l0 -32.661407l-76.97638 -16.330719z" fill-rule="evenodd"/><path fill="#cfe2f3" d="m386.9213 327.38846l-76.97638 0l0 60.22046l76.97638 0z" fill-rule="evenodd"/><path fill="#cfe2f3" d="m384.32285 352.5092l-71.77951 0l0 47.811035l71.77951 0z" fill-rule="evenodd"/><path fill="#cfe2f3" d="m259.0814 303.6719l-22.015762 -5.503937l0 -54.314957l22.015762 -5.503937z" fill-rule="evenodd"/><path fill="#cfe2f3" d="m419.01575 297.62466l18.771667 -4.6929016l0 -43.84253l-18.771667 -4.6929016z" fill-rule="evenodd"/><defs><linearGradient id="p.7" gradientUnits="userSpaceOnUse" gradientTransform="matrix(6.191528793169858 -1.6410315735486791 1.6410315735486791 6.191528793169858 0.0 0.0)" spreadMethod="pad" x1="13.197175655999642" y1="100.71345718526818" x2="13.197153246980363" y2="106.90498597839748"><stop offset="0.0" stop-color="#1077d2"/><stop offset="1.0" stop-color="#093153"/></linearGradient></defs><path fill="url(#p.7)" d="m257.14514 640.24835l-0.58969116 -40.87079l233.78656 -61.963867l0.58969116 40.87079z" fill-rule="evenodd"/></g></svg>