<?xml version="1.0" encoding="UTF-8"?> <!-- Creator: CorelDRAW 2019 (64-Bit) --> <svg xmlns="http://www.w3.org/2000/svg" xmlns:xlink="http://www.w3.org/1999/xlink" xmlns:xodm="http://www.corel.com/coreldraw/odm/2003" xml:space="preserve" width="52.07mm" height="22.0134mm" version="1.1" style="shape-rendering:geometricPrecision; text-rendering:geometricPrecision; image-rendering:optimizeQuality; fill-rule:evenodd; clip-rule:evenodd" viewBox="0 0 561.42 237.35"> <defs> <style type="text/css"> <![CDATA[ .fil0 {fill:none} .fil2 {fill:#A9746D;fill-rule:nonzero} .fil3 {fill:#AA202B;fill-rule:nonzero} .fil1 {fill:#EB6875;fill-rule:nonzero} ]]> </style> </defs> <g id="Capa_x0020_1"> <metadata id="CorelCorpID_0Corel-Layer"></metadata> <polygon class="fil0" points="-0,0 561.42,0 561.42,237.35 -0,237.35 "></polygon> <g id="_2720941645184"> <g> <path class="fil1" d="M228.24 36.43c-18.84,-3.33 -26.96,19.61 -26.96,19.61 0,0 -6.84,-22.6 -25.68,-19.28 -22.37,3.95 -28.07,38.79 25.69,74.81 53.75,-36.02 49.34,-71.2 26.96,-75.15z"></path> <path class="fil2" d="M220.62 53.16c-13.44,-2.37 -19.34,13.99 -19.34,13.99 0,0 -4.76,-16.12 -18.2,-13.75 -15.96,2.82 -20.13,27.66 18.21,53.35 38.33,-25.69 35.29,-50.77 19.34,-53.59z"></path> <path class="fil3" d="M215.04 64.64c-9.48,-1.67 -13.76,9.87 -13.76,9.87 0,0 -3.25,-11.37 -12.73,-9.7 -11.26,1.99 -14.32,19.52 12.73,37.64 27.05,-18.12 25.02,-35.82 13.76,-37.81z"></path> </g> <g> <path class="fil1" d="M127.68 52.25c-0.43,0 -1.08,1.87 -1.8,5.67 -1.69,9.05 -7.04,20.72 -16.3,35.11 -10.3,16.51 -22.83,31.77 -37.45,45.67l-2.94 2.84 0.61 -2.19c2.94,-9.16 5.6,-17.05 8.01,-23.8 2.41,-6.71 5.67,-15.33 9.87,-25.96 2.66,-6.75 4.74,-11.99 6.1,-15.8 1.37,-3.66 2.33,-6.61 2.84,-8.72 0.54,-1.98 0.86,-3.88 0.97,-5.57l0.32 -3.88 -2.94 -2.98 -2.87 -2.94 -1.15 1.18c-0.5,0.5 -1.04,1.26 -1.69,2.3 -0.61,1.04 -1.47,2.73 -2.51,4.95 -0.93,2.19 -2.3,5.24 -3.99,9.16 -10.3,23.23 -17.99,44.81 -23.16,64.48 -0.61,2.51 -1.26,4.7 -1.79,6.82 -0.61,2.01 -1.04,3.37 -1.26,3.98 -0.22,0.54 -0.4,1.47 -0.72,2.77 -0.32,1.26 -0.65,2.51 -0.97,3.88 0,0.11 0,0.21 -0.11,0.32 -0.29,1.97 -0.61,3.34 -0.93,4.2 -0.22,0.93 -0.54,1.47 -0.82,1.8 -0.32,0.32 -0.75,0.61 -1.37,0.93 -0.11,0 -0.11,0.11 -0.22,0.11 -3.05,1.47 -5.28,3.37 -6.53,5.78 -1.04,1.69 -1.47,2.94 -1.37,3.91 0,0.93 0.65,1.65 1.8,2.41 0.5,0.43 1.04,0.72 1.36,1.04 0.43,0.43 0.61,0.65 0.61,0.75 0,0.11 0.11,0.21 0.43,0.21 0.32,0.11 0.65,0.11 1.15,0l1.58 -0.32 0.22 8.51c0.11,3.98 0.32,7.14 0.75,9.26 0.29,2.19 1.04,3.99 2.19,5.46 1.15,1.47 2.94,3.16 5.39,5.17 1.36,1.26 2.62,1.9 3.45,1.97 0.97,0 1.9,-0.5 2.84,-1.65 0.43,-0.43 0.75,-0.97 1.08,-1.47 0.32,-0.43 0.39,-0.86 0.39,-1.08 0,-0.39 -0.18,-0.93 -0.72,-1.58 -0.43,-0.72 -0.93,-1.37 -1.58,-1.87 -0.54,-0.54 -0.93,-0.86 -1.26,-0.86 -0.21,0 -0.43,0.11 -0.65,0.32 -0.22,0.22 -0.4,0.43 -0.5,0.65 -1.08,2.08 -1.58,0.07 -1.58,-5.82 0,-5.78 0.5,-11.34 1.69,-16.52l0.5 -2.51 1.69 0.32c2.73,0.43 6.32,2.3 10.63,5.56 1.15,0.86 2.4,1.69 3.66,2.44 1.18,0.72 2.12,1.26 2.87,1.47 1.65,0.5 3.56,0.72 5.89,0.82 2.3,0 4.42,-0.32 6.21,-0.72 1.65,-0.54 3.23,-1.29 4.7,-2.55 1.58,-1.15 3.37,-2.94 5.38,-5.35l3.55 -4.42 -0.93 -1.37c-0.32,-0.43 -0.65,-0.75 -0.93,-0.97 -0.22,-0.29 -0.43,-0.4 -0.65,-0.4 -0.11,0 -0.54,0.11 -1.04,0.5 -0.65,0.32 -1.26,0.86 -2.01,1.36 -0.72,0.54 -1.69,1.18 -2.94,1.8 -1.26,0.75 -2.51,1.26 -3.66,1.8 -1.58,0.72 -3.05,1.15 -4.24,1.47 -1.15,0.22 -2.62,0.43 -4.42,0.54 -1.8,0.11 -3.16,0.11 -4.09,0 -0.93,-0.11 -2.01,-0.32 -3.16,-0.86 -1.47,-0.61 -3.37,-1.69 -5.56,-3.16 -2.23,-1.58 -4.2,-3.16 -5.89,-4.74 -1.8,-1.58 -2.73,-2.62 -2.84,-3.34 0,-0.32 0.5,-1.08 1.69,-2.12 1.26,-1.15 3.23,-2.84 6.07,-5.06 4.52,-3.66 8.98,-7.36 13.18,-11.24 4.2,-3.88 7.58,-7.14 10.09,-9.87 14.72,-16.41 25.78,-32.1 32.92,-47.03 5.57,-11.06 7.58,-18.7 5.89,-23.16 -0.32,-0.61 -0.93,-1.55 -2.01,-2.84 -0.93,-1.26 -1.98,-2.41 -2.94,-3.45 -1.04,-1.08 -1.76,-1.58 -2.08,-1.58zm-2.51 101.17c0.5,-0.61 1.26,-1.47 2.19,-2.73 0.86,-1.26 1.69,-2.51 2.41,-3.8 0.86,-1.26 1.47,-2.3 2.01,-3.12 0.54,-0.86 0.86,-1.29 0.86,-1.29 0,0 -0.11,0.65 -0.22,2.01 -0.11,1.26 -0.32,2.94 -0.54,4.85 -1.36,10.41 0.32,17.13 5.17,20.07 0.72,0.54 1.37,1.08 1.87,1.47 0.54,0.54 0.75,0.75 0.75,0.97 0,0.11 0.11,0.21 0.32,0.32 0.11,0 0.29,0 0.61,0 0.65,-0.11 0.86,-0.65 0.75,-1.47 -0.22,-2.01 -0.32,-4.85 -0.22,-8.54 0.22,-3.66 0.43,-6.82 0.83,-9.26 1.26,-6.93 3.37,-15.44 6.21,-25.53 0.75,-2.33 1.36,-4.74 2.01,-7.07 0.5,-2.3 0.93,-4.09 1.26,-5.35 0.32,-1.37 0.43,-2.44 0.54,-3.05 0.11,-0.65 0.11,-1.15 0,-1.58 -0.22,-0.43 -0.43,-0.83 -0.75,-1.36 -0.54,-0.75 -1.15,-1.58 -2.08,-2.62 -1.08,-1.08 -2.01,-1.9 -2.94,-2.76 -0.97,-0.83 -1.51,-1.26 -1.8,-1.26 -0.86,0 -2.01,2.55 -3.48,7.68 -0.32,1.26 -0.65,2.33 -0.93,3.27 -0.32,0.83 -0.43,1.36 -0.54,1.47 -0.11,0 -0.54,-0.32 -1.26,-0.93 -0.75,-0.75 -1.58,-1.58 -2.62,-2.55 -1.08,-1.04 -2.12,-1.97 -3.05,-2.73 -0.97,-0.72 -1.58,-1.15 -1.9,-1.26 -2.23,-0.43 -4.52,1.15 -7.04,4.52 -2.66,3.48 -4.85,7.79 -6.86,13.03 -1.9,5.39 -3.16,10.63 -3.45,15.9 -0.43,5.35 0.39,8.94 2.41,10.63 2.51,2.51 4.42,3.88 5.57,4.09 1.26,0.32 2.51,-0.32 3.91,-2.01zm-4.24 -6.82c0,-1.26 0.43,-3.48 1.47,-6.64 1.08,-3.27 2.23,-6.21 3.48,-8.83 1.47,-2.94 3.27,-5.67 5.35,-8.11 2.12,-2.3 3.81,-3.45 4.95,-3.45l1.37 0 -0.83 2.19c-1.04,2.44 -2.62,5.78 -4.74,9.91 -2.12,4.09 -3.88,7.25 -5.35,9.33 -0.75,1.08 -1.47,2.12 -2.23,3.16 -0.82,1.08 -1.47,1.79 -1.9,2.23l-1.58 1.58 0 -1.37zm56.48 -31.24c-2.08,0 -3.77,0.4 -5.13,1.26 -1.36,0.82 -2.84,2.3 -4.42,4.52 -0.65,0.93 -1.26,1.69 -1.69,2.19 -0.43,0.65 -0.65,0.86 -0.65,0.86 0,-0.11 0.11,-0.43 0.32,-0.97 0.22,-0.61 0.43,-1.26 0.75,-1.97 0.29,-0.86 0.5,-1.58 0.72,-2.23 0.21,-0.72 0.32,-1.26 0.32,-1.47 0,-0.43 -0.43,-1.15 -1.15,-2.01 -0.75,-0.82 -1.58,-1.58 -2.44,-2.19 -0.83,-0.65 -1.47,-0.93 -1.8,-0.86 -0.61,0.43 -1.65,2.12 -3.12,5.06 -1.37,2.94 -2.66,6.1 -3.8,9.48 -1.26,3.66 -2.08,7.04 -2.73,9.98 -0.54,2.84 -0.82,6.1 -1.04,9.8l-0.21 6.5 1.47 1.36c0.22,0.21 0.43,0.43 0.61,0.65 0.32,0.32 0.75,0.61 1.08,0.93 0.29,0.32 0.61,0.54 0.83,0.86 0.21,0.22 0.54,0.4 0.86,0.5 0.29,0.21 0.5,0.21 0.72,0.21 0.22,-0.11 0.65,-0.93 1.26,-2.41 0.65,-1.37 1.26,-3.16 2.12,-5.28 0.72,-2.08 1.58,-4.31 2.51,-6.39 0.86,-2.23 1.58,-3.91 2.12,-5.17 1.47,-2.94 3.05,-5.89 4.92,-8.94 1.9,-3.05 3.48,-5.17 4.63,-6.43 0.97,-0.82 2.33,-1.58 4.02,-2.19 1.69,-0.65 3.16,-0.97 4.63,-0.97 1.65,0 1.47,-0.93 -0.54,-2.84 -0.54,-0.61 -1.04,-1.04 -1.36,-1.26 -0.43,-0.32 -0.86,-0.43 -1.37,-0.5 -0.54,-0.11 -1.36,-0.11 -2.44,-0.11zm20.86 6.28c0.11,-0.72 0.11,-1.36 0.11,-1.76 -0.11,-0.43 -0.43,-0.97 -0.86,-1.47 -0.5,-0.65 -1.26,-1.47 -2.3,-2.66 -2.33,-2.41 -3.7,-3.45 -4.2,-3.27 -1.58,0.86 -3.27,4.02 -5.17,9.37 -2.01,5.39 -3.59,11.27 -4.85,17.66 -1.37,6.43 -1.87,11.81 -1.69,15.91 0.11,2.84 0.43,4.92 0.97,6.43 0.5,1.47 1.37,2.73 2.62,3.77 0.65,0.65 1.26,1.26 1.9,1.79 0.5,0.61 1.04,1.04 1.36,1.37 0.93,0.93 1.69,1.15 2.01,0.61 0.29,-0.5 0.18,-1.65 -0.43,-3.23 -0.22,-0.65 -0.43,-1.37 -0.54,-2.12 -0.22,-0.83 -0.32,-1.58 -0.32,-2.12 0,-5.24 3.05,-16.08 9.16,-32.6 0.54,-1.47 0.97,-2.94 1.36,-4.42 0.43,-1.47 0.75,-2.51 0.86,-3.27zm62.33 -30.09c-0.07,-1.04 -1.36,-2.84 -3.66,-5.24 -0.93,-1.04 -1.9,-1.9 -2.62,-2.51 -0.75,-0.75 -1.26,-1.08 -1.47,-1.08 -0.75,0 -1.79,2.33 -3.27,6.96 -1.47,4.63 -2.84,10.41 -4.2,17.45 -6.86,36.41 -8.83,62.9 -6,79.42 0.61,2.84 1.26,4.95 2.08,6.53 0.75,1.47 1.79,2.73 3.27,3.56 0.65,0.54 1.26,1.08 2.01,1.58 0.72,0.65 1.26,1.15 1.69,1.69 0.61,0.54 1.04,0.93 1.47,1.15 0.39,0.22 0.82,0.22 1.26,0.11 0.72,-0.11 1.47,-0.61 2.08,-1.37 0.75,-0.82 1.47,-2.3 2.44,-4.42 0.93,-2.12 2.08,-5.06 3.55,-8.94 3.91,-10.63 7.29,-19.14 10.02,-25.56 2.73,-6.43 6,-13.46 9.77,-21.04 11.27,-22.4 24.31,-43.44 39.03,-62.9 2.01,-2.62 3.48,-4.63 4.63,-6.21 1.04,-1.47 2.01,-2.84 2.84,-4.09 0.75,-1.15 1.58,-2.51 2.41,-4.09l2.55 -4.42 -1.69 -1.58c-0.43,-0.54 -0.86,-0.86 -1.36,-1.15 -0.43,-0.32 -0.75,-0.54 -0.97,-0.54 -0.18,0 -0.72,0.22 -1.36,0.75 -0.72,0.39 -1.47,1.04 -2.3,1.65 -0.86,0.65 -1.58,1.36 -2.12,2.01 -1.47,1.69 -4.31,5.67 -8.62,12.21 -4.2,6.53 -8.83,14 -14,22.3 -5.13,8.4 -9.77,16.3 -13.97,23.66 -3.7,6.32 -7.9,14.22 -12.75,23.55 -4.81,9.37 -8.62,17.06 -11.45,23.05 -3.59,7.58 -6.32,13.36 -8.11,17.34l-1.58 3.16 0 -5.56c-0.18,-16.52 2.44,-38.92 7.79,-67.21 2.12,-11.27 3.05,-17.99 2.62,-20.21zm43.77 69.11c4.2,0 9.87,-4.74 17.05,-14.29l3.88 -5.06 -1.15 -1.15c-0.65,-0.65 -1.26,-0.82 -1.79,-0.54 -0.32,0.11 -1.04,0.75 -2.3,1.9 -1.29,1.15 -2.66,2.51 -4.34,4.09 -6.18,5.89 -10.7,8.72 -13.36,8.72 -1.15,0.11 -1.76,-1.15 -1.76,-3.66 0,-0.43 0.07,-1.36 0.4,-2.73 0.32,-1.47 0.75,-2.94 1.08,-4.63 0.4,-1.69 0.83,-3.16 1.26,-4.52 0.29,-1.26 0.5,-2.01 0.72,-2.12 0.11,-0.11 0.32,0 0.65,0.43 0.39,0.32 0.83,0.75 1.37,1.26 0.72,0.97 1.26,1.47 1.69,1.69 0.5,0.22 1.15,0.32 2.08,0.11 0.65,-0.11 1.26,-0.32 2.01,-0.54 0.82,-0.29 1.47,-0.61 2.01,-1.04 2.3,-1.69 4.63,-4.31 6.82,-7.9 2.22,-3.55 3.7,-6.93 4.31,-9.98 0.43,-1.9 0.32,-3.59 -0.21,-5.06 -0.61,-1.47 -1.76,-3.16 -3.66,-4.92 -0.97,-0.97 -1.69,-1.69 -2.23,-2.12 -0.5,-0.54 -1.04,-0.82 -1.47,-0.93 -0.4,-0.22 -0.93,-0.22 -1.47,-0.22 -2.94,0 -6.32,1.9 -10.09,5.67 -4.31,4.09 -7.68,9.26 -9.98,15.48 -1.36,3.45 -2.23,6.21 -2.66,8.4 -0.4,2.23 -0.5,4.63 -0.4,7.58 0.11,2.01 0.32,3.48 0.5,4.63 0.22,1.04 0.65,2.19 1.18,3.37 0.4,0.72 0.93,1.58 1.47,2.3 0.39,0.75 0.93,1.15 1.26,1.47 0.39,0.32 0.93,0.65 1.58,1.15 0.61,0.43 1.26,0.97 1.87,1.47 1.4,1.08 2.66,1.69 3.7,1.69zm4.31 -33.86c0.93,-1.69 2.12,-3.37 3.48,-5.17 1.47,-1.69 2.73,-3.16 3.88,-4.2 1.15,-1.04 1.69,-1.26 1.69,-0.61 0,0.72 -0.54,2.08 -1.8,3.98 -1.26,1.9 -2.62,3.66 -4.09,5.13 -3.99,4.13 -5.06,4.35 -3.16,0.86zm31.67 26.6c0.5,-0.61 1.26,-1.47 2.19,-2.73 0.86,-1.26 1.69,-2.51 2.41,-3.8 0.86,-1.26 1.47,-2.3 2.01,-3.12 0.54,-0.86 0.86,-1.29 0.86,-1.29 0,0 -0.11,0.65 -0.21,2.01 -0.11,1.26 -0.32,2.94 -0.54,4.85 -1.36,10.41 0.32,17.13 5.17,20.07 0.72,0.54 1.37,1.08 1.87,1.47 0.54,0.54 0.75,0.75 0.75,0.97 0,0.11 0.11,0.21 0.32,0.32 0.11,0 0.29,0 0.61,0 0.65,-0.11 0.86,-0.65 0.75,-1.47 -0.22,-2.01 -0.32,-4.85 -0.22,-8.54 0.22,-3.66 0.43,-6.82 0.83,-9.26 1.26,-6.93 3.37,-15.44 6.21,-25.53 0.75,-2.33 1.36,-4.74 2.01,-7.07 0.5,-2.3 0.93,-4.09 1.26,-5.35 0.32,-1.37 0.43,-2.44 0.54,-3.05 0.11,-0.65 0.11,-1.15 0,-1.58 -0.21,-0.43 -0.43,-0.83 -0.75,-1.36 -0.54,-0.75 -1.15,-1.58 -2.08,-2.62 -1.08,-1.08 -2.01,-1.9 -2.94,-2.76 -0.97,-0.83 -1.51,-1.26 -1.79,-1.26 -0.86,0 -2.01,2.55 -3.48,7.68 -0.32,1.26 -0.65,2.33 -0.93,3.27 -0.32,0.83 -0.43,1.36 -0.54,1.47 -0.11,0 -0.54,-0.32 -1.26,-0.93 -0.75,-0.75 -1.58,-1.58 -2.62,-2.55 -1.08,-1.04 -2.12,-1.97 -3.05,-2.73 -0.97,-0.72 -1.58,-1.15 -1.9,-1.26 -2.23,-0.43 -4.52,1.15 -7.04,4.52 -2.66,3.48 -4.85,7.79 -6.86,13.03 -1.9,5.39 -3.16,10.63 -3.45,15.9 -0.43,5.35 0.39,8.94 2.41,10.63 2.51,2.51 4.42,3.88 5.57,4.09 1.26,0.32 2.51,-0.32 3.91,-2.01zm-4.24 -6.82c0,-1.26 0.43,-3.48 1.47,-6.64 1.08,-3.27 2.23,-6.21 3.48,-8.83 1.47,-2.94 3.27,-5.67 5.35,-8.11 2.12,-2.3 3.81,-3.45 4.95,-3.45l1.37 0 -0.83 2.19c-1.04,2.44 -2.62,5.78 -4.74,9.91 -2.12,4.09 -3.88,7.25 -5.35,9.33 -0.75,1.08 -1.47,2.12 -2.23,3.16 -0.82,1.08 -1.47,1.79 -1.9,2.23l-1.58 1.58 0 -1.37zm54.18 -9.69c0,0.22 0.22,0.54 0.54,0.97 0.18,0.29 0.5,0.61 0.93,0.93 0.43,0.43 0.72,0.61 0.93,0.93 0.22,0.32 0.43,0.54 0.32,0.65 0,0.43 0.22,0.5 0.75,0.43 0.39,0 0.93,-0.32 1.65,-0.86 1.58,-1.04 3.7,-4.74 6.21,-10.84 0.97,-2.19 1.69,-4.09 2.12,-5.46 0.43,-1.47 0.83,-3.16 1.15,-5.17 0.65,-3.88 0.75,-6.93 0.22,-9.12 -0.54,-2.33 -1.8,-4.52 -3.77,-6.75 -1.18,-1.47 -2.33,-2.3 -3.27,-2.73 -1.08,-0.43 -2.34,-0.43 -3.81,0 -2.51,0.72 -5.35,2.4 -8.62,4.95 -3.16,2.62 -5.89,5.46 -8.11,8.62 -1.26,1.9 -2.51,4.31 -3.77,7.04 -1.36,2.84 -2.3,5.39 -2.84,7.47 -1.47,6.53 -0.75,12.21 2.3,17.06 0.43,0.5 1.08,1.36 2.01,2.41 0.93,1.15 2.01,2.33 3.16,3.48 1.15,1.15 2.08,2.19 2.84,3.16 0.72,0.93 1.15,1.58 1.26,1.87 0.32,2.23 -0.22,4.24 -1.8,6 -1.47,1.8 -3.55,2.94 -6.21,3.48 -0.61,0.11 -1.26,0.22 -1.87,0.22 -0.54,0 -0.86,0 -1.08,-0.11 -0.4,-0.22 -0.61,-0.72 -0.83,-1.47 -0.21,-0.72 -0.32,-1.47 -0.21,-2.3 0.11,-0.75 -0.22,-1.69 -0.93,-2.76l-1.08 -1.47 -0.82 1.08c-0.54,0.61 -0.83,1.69 -0.83,3.05 -0.11,1.36 0.11,2.62 0.61,3.88 0.21,0.54 0.75,1.36 1.58,2.3 0.86,0.97 1.8,1.9 2.84,2.98 0.97,0.93 1.9,1.65 2.62,2.19 2.23,1.47 5.17,1.37 8.87,-0.32 0.83,-0.4 1.65,-0.83 2.62,-1.37 0.83,-0.5 1.47,-0.93 1.9,-1.36 1.36,-1.26 2.19,-2.84 2.62,-4.63 0.5,-1.9 0.4,-3.66 -0.22,-5.46 -0.32,-0.97 -1.04,-2.22 -2.23,-3.8 -1.04,-1.69 -2.3,-3.34 -3.66,-4.92 -1.26,-1.69 -2.51,-2.94 -3.48,-3.81 -1.47,-1.15 -2.3,-2.51 -2.73,-3.99 -0.32,-1.47 -0.22,-3.99 0.22,-7.36 0.43,-3.27 1.04,-6.1 1.9,-8.54 0.93,-2.51 2.19,-5.13 4.09,-7.97 2.01,-3.16 4.31,-5.89 6.82,-8.22 2.66,-2.3 4.96,-3.77 7.07,-4.42 0.5,-0.11 0.82,-0.11 1.04,0.11 0.22,0.22 0.32,0.75 0.32,1.47 0,0.75 -0.11,2.01 -0.32,3.59 -0.21,2.19 -0.75,4.63 -1.58,7.04 -0.86,2.51 -2.33,5.78 -4.2,9.91 -0.97,1.97 -1.79,3.77 -2.33,5.24 -0.61,1.58 -0.93,2.41 -0.93,2.73zm85.2 -56.26c-0.43,-0.86 -0.83,-1.47 -1.15,-1.9 -0.32,-0.43 -0.86,-0.72 -1.47,-1.04 -0.75,-0.32 -1.8,-0.75 -3.16,-1.26 -2.84,-1.18 -5.78,-2.01 -8.94,-2.55 -3.05,-0.61 -7.36,-1.04 -12.82,-1.58 -2.87,-0.21 -5.06,-0.4 -6.96,-0.61 -0.93,-0.11 -1.8,-0.22 -2.41,-0.32 -0.65,0 -0.97,-0.11 -1.04,-0.22 0.61,-1.26 1.54,-3.66 3.02,-7.25 1.4,-3.59 2.76,-7.14 4.02,-10.73 1.26,-3.55 1.9,-6 1.97,-7.25 0,-0.54 -0.29,-1.15 -1.04,-2.01 -0.61,-0.83 -1.36,-1.58 -2.19,-2.19 -0.75,-0.54 -1.29,-0.86 -1.69,-0.75 -0.54,0.43 -1.9,2.94 -4.09,7.36 -2.23,4.52 -4.52,9.59 -6.97,15.37l-2.94 7.14c-0.11,0 -0.11,0 -0.11,0 0,0 0,0 0,0 0,0 0.11,0 0.11,0 0,0 0.11,0 0.11,0 0,0 0.11,0 0.11,0 0,-0.11 0,-0.11 0,-0.11 0,0 0,0 -0.11,0 0,0 -0.11,0 -0.22,0 0,0.11 -0.22,0.11 -0.32,0.11 -0.11,0 -0.29,0 -0.5,0 -0.22,0 -0.43,0 -0.75,0 -0.32,0 -0.61,0 -1.04,0 -0.83,0 -2.01,0.11 -3.48,0.11 -8.08,-0.11 -16.3,0.11 -24.59,0.75 -8.33,0.61 -15.47,1.47 -21.47,2.51 -5.89,1.04 -9.05,2.12 -9.37,3.27 -0.11,0.22 -0.11,0.54 0.11,0.93 0.11,0.32 0.32,0.75 0.54,1.15 0.22,0.43 0.43,0.75 0.61,0.97 0.22,0.11 0.43,0.21 0.75,0.21 0.32,0 0.82,0 1.47,-0.11 2.94,-0.54 6.64,-1.08 10.95,-1.58 4.2,-0.54 8.19,-0.97 11.78,-1.26 1.9,-0.11 4.31,-0.21 7.36,-0.32 3.05,-0.11 6.1,-0.22 9.26,-0.22 3.16,-0.11 5.78,-0.11 7.86,-0.11 1.08,0 2.12,0.11 3.27,0.22 1.15,0.11 2.23,0.11 3.05,0.22 0.75,0.11 1.15,0.11 1.36,0.11 -0.11,0.21 -0.21,0.61 -0.39,1.37 -0.22,0.72 -0.54,1.58 -0.97,2.62 -0.83,2.33 -1.97,5.17 -3.37,8.62 -3.12,8.01 -5.78,14.94 -7.65,20.64 -1.9,5.67 -4.02,12.49 -6.32,20.61 -2.94,10.84 -4.42,20.07 -4.2,27.86 0.11,7.79 1.87,12.75 5.03,14.83 0.54,0.32 1.08,0.65 1.58,1.08 0.54,0.4 0.97,0.72 1.15,1.04 1.18,1.26 2.33,1.36 3.59,0.22 1.36,-1.08 3.37,-3.7 5.89,-8.01l4.09 -6.64 -1.26 -1.26 -1.15 -1.26 -3.48 4.2c-3.55,4.31 -5.78,6.43 -6.72,6.43 -0.22,0 -0.22,-1.15 -0.11,-3.59 0.22,-2.41 0.43,-5.35 0.83,-8.72 0.54,-3.05 1.47,-7.97 3.16,-14.72 1.69,-6.82 3.37,-13.03 5.06,-18.81 1.36,-4.63 3.27,-10.63 5.78,-17.88 2.41,-7.29 4.85,-14 7.04,-20.11 1.15,-3.37 2.12,-5.89 2.84,-7.68 1.08,0 2.55,0.11 4.31,0.32 4.02,0.32 8.54,0.82 13.46,1.58 1.29,0.22 3.16,0.54 5.49,0.83 2.41,0.32 4.85,0.65 7.15,0.86 2.3,0.32 4.42,0.61 6.21,0.93 1.8,0.21 2.94,0.43 3.37,0.65 1.87,0.72 2.19,-0.22 0.72,-3.05zm-38.99 72.78c0.5,-0.61 1.26,-1.47 2.19,-2.73 0.86,-1.26 1.69,-2.51 2.41,-3.8 0.86,-1.26 1.47,-2.3 2.01,-3.12 0.54,-0.86 0.86,-1.29 0.86,-1.29 0,0 -0.11,0.65 -0.22,2.01 -0.11,1.26 -0.32,2.94 -0.54,4.85 -1.36,10.41 0.32,17.13 5.17,20.07 0.72,0.54 1.37,1.08 1.87,1.47 0.54,0.54 0.75,0.75 0.75,0.97 0,0.11 0.11,0.21 0.32,0.32 0.11,0 0.29,0 0.61,0 0.65,-0.11 0.86,-0.65 0.75,-1.47 -0.22,-2.01 -0.32,-4.85 -0.22,-8.54 0.22,-3.66 0.43,-6.82 0.83,-9.26 1.26,-6.93 3.37,-15.44 6.21,-25.53 0.75,-2.33 1.36,-4.74 2.01,-7.07 0.5,-2.3 0.93,-4.09 1.26,-5.35 0.32,-1.37 0.43,-2.44 0.54,-3.05 0.11,-0.65 0.11,-1.15 0,-1.58 -0.22,-0.43 -0.43,-0.83 -0.75,-1.36 -0.54,-0.75 -1.15,-1.58 -2.08,-2.62 -1.08,-1.08 -2.01,-1.9 -2.94,-2.76 -0.97,-0.83 -1.51,-1.26 -1.8,-1.26 -0.86,0 -2.01,2.55 -3.48,7.68 -0.32,1.26 -0.65,2.33 -0.93,3.27 -0.32,0.83 -0.43,1.36 -0.54,1.47 -0.11,0 -0.54,-0.32 -1.26,-0.93 -0.75,-0.75 -1.58,-1.58 -2.62,-2.55 -1.08,-1.04 -2.12,-1.97 -3.05,-2.73 -0.97,-0.72 -1.58,-1.15 -1.9,-1.26 -2.23,-0.43 -4.52,1.15 -7.04,4.52 -2.66,3.48 -4.85,7.79 -6.86,13.03 -1.9,5.39 -3.16,10.63 -3.45,15.9 -0.43,5.35 0.39,8.94 2.41,10.63 2.51,2.51 4.42,3.88 5.57,4.09 1.26,0.32 2.51,-0.32 3.91,-2.01zm-4.24 -6.82c0,-1.26 0.43,-3.48 1.47,-6.64 1.08,-3.27 2.23,-6.21 3.48,-8.83 1.47,-2.94 3.27,-5.67 5.35,-8.11 2.12,-2.3 3.81,-3.45 4.95,-3.45l1.37 0 -0.83 2.19c-1.04,2.44 -2.62,5.78 -4.74,9.91 -2.12,4.09 -3.88,7.25 -5.35,9.33 -0.75,1.08 -1.47,2.12 -2.23,3.16 -0.82,1.08 -1.47,1.79 -1.9,2.23l-1.58 1.58 0 -1.37z"></path> <path class="fil1" d="M511.88 52.25c0,0 0,0 -0.11,0 0,0 -0.11,0 -0.22,0 0,0 -0.11,0.11 -0.21,0.21 -0.11,0.11 -0.22,0.39 -0.32,0.61 -0.07,0.32 -0.29,0.75 -0.4,1.26 -0.22,0.54 -0.54,1.29 -0.75,2.12 -0.32,0.83 -0.72,1.9 -1.04,3.05 -0.43,1.26 -0.93,2.73 -1.47,4.42 -0.54,1.58 -1.15,3.59 -1.9,5.67 -0.72,2.23 -1.47,4.63 -2.41,7.47 -0.11,0.21 -0.22,0.54 -0.22,0.75 -3.37,9.98 -6.32,18.38 -8.83,25.24 -2.62,6.82 -4.09,10.2 -4.63,10.2 -0.11,0 -0.43,-0.21 -0.93,-0.65 -0.54,-0.4 -1.18,-1.04 -1.8,-1.65 -1.08,-0.97 -1.9,-1.58 -2.44,-1.9 -0.61,-0.32 -1.37,-0.43 -2.08,-0.43 -3.05,0 -6.43,2.41 -10.2,7.36 -3.27,4.2 -5.89,9.26 -8.01,15.37 -2.12,6 -2.94,11.13 -2.62,15.26 0.21,1.15 0.4,2.08 0.61,2.73 0.32,0.54 0.86,1.15 1.58,1.8 0.54,0.5 1.15,1.04 1.8,1.58 0.75,0.61 1.26,1.26 1.79,1.65 0.54,0.54 0.93,0.97 1.47,1.29 0.43,0.29 0.72,0.39 0.93,0.39 1.15,0 2.94,-1.69 5.6,-5.03 2.51,-3.37 5.13,-7.47 7.76,-12.42 2.73,-5.35 3.37,-5.89 2.01,-1.58 -1.26,4.42 -2.51,10.3 -3.77,17.77 -1.4,7.58 -2.33,14.11 -2.87,19.89 -0.5,4.74 -0.29,8.29 0.43,10.63 0.86,2.19 2.84,4.63 5.89,6.93 0.54,0.43 1.04,0.75 1.47,1.04 0.54,0.21 0.86,0.43 1.04,0.43 0.21,0 0.65,-0.32 1.4,-0.83 0.61,-0.54 1.36,-1.15 2.08,-1.9 0.86,-0.72 1.47,-1.47 2.01,-2.12 0.61,-0.61 0.93,-1.15 0.93,-1.36 0,-1.26 -1.26,-1.26 -3.77,0.11 -2.01,1.26 -3.16,1.69 -3.48,1.19 -0.43,-0.43 -0.65,-2.55 -0.65,-6.21 0,-3.27 0.32,-6.86 0.86,-10.84 0.54,-4.09 1.15,-7.58 2.01,-10.41 0.18,-0.86 0.5,-1.9 0.82,-3.16 0.32,-1.36 0.65,-2.51 0.93,-3.59 1.36,-5.35 4.42,-15.55 9.16,-30.8 1.26,-4.09 2.44,-8.01 3.48,-11.56 1.15,-3.59 1.9,-6.21 2.3,-7.68 0.43,-1.36 0.97,-3.16 1.58,-5.38 0.65,-2.08 1.29,-4.2 1.9,-6.1 2.12,-6.39 3.59,-11.35 4.52,-14.51 0.93,-3.27 2.01,-6.82 2.94,-10.73 0.86,-3.16 1.37,-5.46 1.58,-6.93 0.32,-1.47 0.32,-2.41 0.11,-2.73 -0.22,-0.54 -0.82,-1.26 -1.69,-2.23 -0.82,-0.83 -1.69,-1.69 -2.51,-2.51 -0.86,-0.75 -1.47,-1.15 -1.69,-1.15zm-33.14 80.35c-2.19,3.59 -3.99,6.43 -5.46,8.51 -1.58,2.23 -2.33,3.16 -2.33,2.84 0,-0.29 0.22,-1.04 0.75,-2.41 0.5,-1.37 1.15,-2.84 1.79,-4.42 0.72,-1.58 1.36,-3.05 1.98,-4.2 1.08,-2.01 2.23,-3.99 3.7,-6 1.37,-2.12 2.73,-3.81 3.88,-5.06 1.15,-1.36 2.01,-1.9 2.33,-1.69 0.29,0.65 -1.9,4.85 -6.64,12.42z"></path> </g> </g> </g> </svg> 